<?xml version="1.0" standalone="no"?><!DOCTYPE svg PUBLIC "-//W3C//DTD SVG 1.1//EN" "http://www.w3.org/Graphics/SVG/1.1/DTD/svg11.dtd"><svg t="1563722760131" class="icon" viewBox="0 0 1204 1024" version="1.1" xmlns="http://www.w3.org/2000/svg" p-id="1170" width="150.5" height="128" xmlns:xlink="http://www.w3.org/1999/xlink"><defs><style type="text/css"></style></defs><path d="M261.481412 329.487059c13.251765-20.118588 29.274353-39.032471 48.007529-56.862118-12.649412-6.384941-15.841882-12.709647-9.517176-19.094588 69.872941-85.654588 161.912471-128.542118 276.178823-128.542118l1.084236 190.945883c-99.809882 6.746353-178.597647 89.208471-178.597648 189.982117 0 101.496471 79.932235 184.440471 180.705883 190.162824l1.566117 285.997176c0 9.517176 4.818824 19.094588-9.517176 19.094589-23.792941-119.085176-109.507765-138.119529-171.429647-166.671059-61.861647-28.611765-99.990588-66.680471-114.266353-95.232 9.517176-14.275765 4.818824-14.275765-19.034353-38.128941-14.034824-13.974588-29.696-39.574588-40.176941-84.449883-164.562824-57.825882-164.562824-139.324235-164.562824-139.324235 12.649412 19.034353 34.936471 36.502588 66.620236 52.404706 3.192471-3.192471-17.468235-26.985412-61.861647-71.439059C0 391.649882 9.517176 320.210824 9.517176 320.210824c23.792941 66.258824 119.024941 123.843765 133.360942 128.602352 14.275765 4.758588 19.034353-14.336 0-23.853176C19.034353 348.822588 0 272.564706 0 186.910118 0 101.195294 57.163294 58.307765 57.163294 58.307765c0 109.568 19.034353 161.912471 80.896 223.834353 31.201882 31.141647 72.342588 46.983529 123.482353 47.344941z m689.332706 291.418353c-15.480471 43.730824-41.682824 83.184941-78.667294 118.362353 12.649412 6.324706 15.902118 12.649412 9.517176 19.034353-69.872941 85.714824-161.912471 128.542118-276.178824 128.542117l-1.084235-191.126588c99.689412-6.806588 178.356706-89.148235 178.356706-189.741176 0-101.376-79.811765-184.199529-180.464941-189.982118L600.726588 29.756235c0-9.517176-4.758588-19.034353 9.517177-19.034353 23.792941 119.024941 109.507765 138.059294 171.429647 166.671059 61.921882 28.551529 99.990588 66.620235 114.266353 95.171765-9.517176 14.336-4.758588 14.336 19.094588 38.128941 3.614118 3.674353 7.469176 8.192 11.264 13.613177 59.030588 3.252706 105.773176-12.408471 140.348235-46.98353C1128.508235 215.521882 1147.482353 163.177412 1147.482353 53.609412c0 0 57.163294 42.887529 57.163294 128.602353 0 85.714824-19.034353 161.852235-142.878118 238.049882-19.034353 9.517176-14.275765 28.611765 0 23.853177 14.336-4.818824 109.568-62.283294 133.360942-128.602353 0 0 9.517176 71.439059-57.163295 138.119529-44.453647 44.393412-65.054118 68.246588-61.861647 71.378824 31.744-15.841882 53.970824-33.310118 66.620236-52.404706 0 0 0 90.352941-191.969883 148.359529z" fill="#FFB200" p-id="1171"></path></svg>